<svg xmlns="http://www.w3.org/2000/svg" viewBox="0 0 240 70" fill="none">
  <defs>
    <radialGradient id="cg" cx="38%" cy="32%" r="60%">
      <stop offset="0%" stop-color="white" stop-opacity="0.18"/>
      <stop offset="100%" stop-color="white" stop-opacity="0"/>
    </radialGradient>
  </defs>
  <circle cx="36.5" cy="36.5" r="30" fill="rgba(0,0,0,0.18)"/>
  <circle cx="35" cy="35" r="30" fill="#1a6b8a"/>
  <circle cx="35" cy="35" r="30" fill="url(#cg)"/>
  <circle cx="35" cy="35" r="30" stroke="rgba(255,255,255,0.75)" stroke-width="1.4" fill="none"/>
  <circle cx="35" cy="35" r="22.5" stroke="rgba(255,255,255,0.22)" stroke-width="0.8" fill="none"/>
  <line x1="35"   y1="5"    x2="35"   y2="10.5" stroke="rgba(255,255,255,0.95)" stroke-width="1.6" stroke-linecap="round"/>
  <line x1="65"   y1="35"   x2="59.5" y2="35"   stroke="rgba(255,255,255,0.95)" stroke-width="1.6" stroke-linecap="round"/>
  <line x1="35"   y1="65"   x2="35"   y2="59.5" stroke="rgba(255,255,255,0.95)" stroke-width="1.6" stroke-linecap="round"/>
  <line x1="5"    y1="35"   x2="10.5" y2="35"   stroke="rgba(255,255,255,0.95)" stroke-width="1.6" stroke-linecap="round"/>
  <line x1="56.2" y1="13.8" x2="53.2" y2="16.8" stroke="rgba(255,255,255,0.75)" stroke-width="1.2" stroke-linecap="round"/>
  <line x1="56.2" y1="56.2" x2="53.2" y2="53.2" stroke="rgba(255,255,255,0.75)" stroke-width="1.2" stroke-linecap="round"/>
  <line x1="13.8" y1="56.2" x2="16.8" y2="53.2" stroke="rgba(255,255,255,0.75)" stroke-width="1.2" stroke-linecap="round"/>
  <line x1="13.8" y1="13.8" x2="16.8" y2="16.8" stroke="rgba(255,255,255,0.75)" stroke-width="1.2" stroke-linecap="round"/>
  <line x1="46.5" y1="7.3"  x2="45.5" y2="9.6"  stroke="rgba(255,255,255,0.4)" stroke-width="0.8" stroke-linecap="round"/>
  <line x1="62.7" y1="23.5" x2="60.4" y2="24.5" stroke="rgba(255,255,255,0.4)" stroke-width="0.8" stroke-linecap="round"/>
  <line x1="62.7" y1="46.5" x2="60.4" y2="45.5" stroke="rgba(255,255,255,0.4)" stroke-width="0.8" stroke-linecap="round"/>
  <line x1="46.5" y1="62.7" x2="45.5" y2="60.4" stroke="rgba(255,255,255,0.4)" stroke-width="0.8" stroke-linecap="round"/>
  <line x1="23.5" y1="62.7" x2="24.5" y2="60.4" stroke="rgba(255,255,255,0.4)" stroke-width="0.8" stroke-linecap="round"/>
  <line x1="7.3"  y1="46.5" x2="9.6"  y2="45.5" stroke="rgba(255,255,255,0.4)" stroke-width="0.8" stroke-linecap="round"/>
  <line x1="7.3"  y1="23.5" x2="9.6"  y2="24.5" stroke="rgba(255,255,255,0.4)" stroke-width="0.8" stroke-linecap="round"/>
  <line x1="23.5" y1="7.3"  x2="24.5" y2="9.6"  stroke="rgba(255,255,255,0.4)" stroke-width="0.8" stroke-linecap="round"/>
  <path d="M 35,14 L 37.5,29 L 45.6,24.4 L 41,32.5 L 56,35 L 41,37.5 L 45.6,45.6 L 37.5,41 L 35,56 L 32.5,41 L 24.4,45.6 L 29,37.5 L 14,35 L 29,32.5 L 24.4,24.4 L 32.5,29 Z" fill="rgba(255,255,255,0.72)"/>
  <polygon points="35,56 32.5,41 37.5,41" fill="rgba(200,220,230,0.55)"/>
  <polygon points="35,14 37.5,29 32.5,29" fill="#f59e0b"/>
  <circle cx="35" cy="35" r="5.5" fill="#1a6b8a" stroke="rgba(255,255,255,0.7)" stroke-width="1.2"/>
  <circle cx="35" cy="35" r="2.5" fill="white"/>
  <text x="35"   y="19.5" text-anchor="middle" font-family="Arial,sans-serif" font-size="5.5" font-weight="900" fill="white" opacity="0.9">N</text>
  <text x="52.5" y="37"   text-anchor="middle" font-family="Arial,sans-serif" font-size="4.5" font-weight="700" fill="rgba(255,255,255,0.65)">E</text>
  <text x="35"   y="53"   text-anchor="middle" font-family="Arial,sans-serif" font-size="4.5" font-weight="700" fill="rgba(255,255,255,0.65)">S</text>
  <text x="17.5" y="37"   text-anchor="middle" font-family="Arial,sans-serif" font-size="4.5" font-weight="700" fill="rgba(255,255,255,0.65)">W</text>
  <text x="77" y="37" font-family="Georgia,'Times New Roman',serif" font-size="27" font-weight="700" fill="white" letter-spacing="-0.5">Travelo</text>
  <circle cx="74" cy="46.5" r="2.5" fill="#f59e0b"/>
  <text x="80" y="49.5" font-family="Arial,sans-serif" font-size="8.5" fill="rgba(255,255,255,0.75)" letter-spacing="2.2" font-weight="600">TRAVEL AGENCY</text>
</svg>
